<?xml version="1.0" encoding="UTF-8" standalone="no"?>
<!-- Created with Inkscape (http://www.inkscape.org/) -->

<svg
   xmlns:dc="http://purl.org/dc/elements/1.1/"
   xmlns:cc="http://creativecommons.org/ns#"
   xmlns:rdf="http://www.w3.org/1999/02/22-rdf-syntax-ns#"
   xmlns:svg="http://www.w3.org/2000/svg"
   xmlns="http://www.w3.org/2000/svg"
   xmlns:sodipodi="http://sodipodi.sourceforge.net/DTD/sodipodi-0.dtd"
   xmlns:inkscape="http://www.inkscape.org/namespaces/inkscape"
   width="85.641731"
   height="95.137794"
   id="svg2"
   version="1.1"
   inkscape:version="0.48.5 r10040"
   sodipodi:docname="left-frieze.svg">
  <defs
     id="defs4" />
  <sodipodi:namedview
     id="base"
     pagecolor="#ffffff"
     bordercolor="#666666"
     borderopacity="1.0"
     inkscape:pageopacity="0.0"
     inkscape:pageshadow="2"
     inkscape:zoom="5.6"
     inkscape:cx="51.642358"
     inkscape:cy="43.873624"
     inkscape:document-units="px"
     inkscape:current-layer="layer3"
     showgrid="false"
     inkscape:window-width="1400"
     inkscape:window-height="1001"
     inkscape:window-x="0"
     inkscape:window-y="25"
     inkscape:window-maximized="1"
     units="mm" />
  <metadata
     id="metadata7">
    <rdf:RDF>
      <cc:Work
         rdf:about="">
        <dc:format>image/svg+xml</dc:format>
        <dc:type
           rdf:resource="http://purl.org/dc/dcmitype/StillImage" />
        <dc:title />
      </cc:Work>
    </rdf:RDF>
  </metadata>
  <g
     inkscape:groupmode="layer"
     id="layer3"
     inkscape:label="Layer#1"
     style="display:inline"
     transform="translate(0,-4.8621955)">
    <rect
       style="fill:#ffffff;fill-opacity:1;stroke:none"
       id="rect4005"
       width="85.642036"
       height="95.137489"
       x="-0.00015245868"
       y="4.8623552" />
    <path
       id="path3097-4"
       style="fill:none;stroke:#000000;stroke-width:3;stroke-linecap:round;stroke-linejoin:round;stroke-miterlimit:4;stroke-opacity:1;stroke-dasharray:none;display:inline"
       d="m 50.261979,83.614912 13.217038,0.360387 C 64.3576,70.842049 48.230467,75.489474 50.261979,83.614912 z m -33.500524,0.04736 13.337193,0.180193 C 30.07607,71.550122 14.970254,75.957287 16.761455,83.662271 z M 27.395162,24.438565 C 16.427131,29.023173 19.098364,47.983627 18.74401,57.59423 23.888302,59.22757 28.903073,58.870844 32.348167,57.758082 31.37972,35.58748 23.054488,34.741159 27.395162,24.438565 z M 66.275578,44.895719 45.50336,44.65546 m 0.375041,-5.250502 19.491745,-0.140739 M 61.038532,21.195076 C 46.418357,36.38275 50.086715,53.649886 55.631562,57.474102 62.444026,49.86076 64.317255,33.56095 52.747845,21.555463"
       inkscape:connector-curvature="0"
       sodipodi:nodetypes="ccccccccccccccccc" />
  </g>
</svg>
