<?xml version="1.0" encoding="UTF-8" standalone="no"?>
<!-- Created with Inkscape (http://www.inkscape.org/) -->

<svg
   xmlns:dc="http://purl.org/dc/elements/1.1/"
   xmlns:cc="http://creativecommons.org/ns#"
   xmlns:rdf="http://www.w3.org/1999/02/22-rdf-syntax-ns#"
   xmlns:svg="http://www.w3.org/2000/svg"
   xmlns="http://www.w3.org/2000/svg"
   xmlns:sodipodi="http://sodipodi.sourceforge.net/DTD/sodipodi-0.dtd"
   xmlns:inkscape="http://www.inkscape.org/namespaces/inkscape"
   width="188.61023"
   height="75.437004"
   id="svg2"
   version="1.1"
   inkscape:version="0.48.5 r10040"
   sodipodi:docname="wings.svg"
   style="enable-background:new">
  <defs
     id="defs4">
    <filter
       inkscape:collect="always"
       id="filter4065"
       color-interpolation-filters="sRGB">
      <feBlend
         inkscape:collect="always"
         mode="darken"
         in2="BackgroundImage"
         id="feBlend4067" />
    </filter>
  </defs>
  <sodipodi:namedview
     id="base"
     pagecolor="#ffffff"
     bordercolor="#666666"
     borderopacity="1.0"
     inkscape:pageopacity="0.0"
     inkscape:pageshadow="2"
     inkscape:zoom="3.959798"
     inkscape:cx="103.81508"
     inkscape:cy="19.877654"
     inkscape:document-units="px"
     inkscape:current-layer="layer3"
     showgrid="false"
     inkscape:window-width="1400"
     inkscape:window-height="1001"
     inkscape:window-x="0"
     inkscape:window-y="25"
     inkscape:window-maximized="1"
     units="mm" />
  <metadata
     id="metadata7">
    <rdf:RDF>
      <cc:Work
         rdf:about="">
        <dc:format>image/svg+xml</dc:format>
        <dc:type
           rdf:resource="http://purl.org/dc/dcmitype/StillImage" />
        <dc:title />
      </cc:Work>
    </rdf:RDF>
  </metadata>
  <g
     inkscape:groupmode="layer"
     id="layer3"
     inkscape:label="Layer#1"
     style="display:inline;filter:url(#filter4065)"
     transform="translate(0,-24.562982)">
    <rect
       style="fill:#ffffff;fill-opacity:1;stroke:none"
       id="rect2998"
       width="188.59251"
       height="75.437012"
       x="0"
       y="24.562981" />
    <path
       id="path4054"
       style="fill:none;stroke:#000000;stroke-width:2;stroke-linecap:round;stroke-linejoin:miter;stroke-miterlimit:4;stroke-opacity:1;stroke-dasharray:none"
       d="m 182.2612,91.513334 c 0,0 0.70852,4.864487 3.83921,3.973913 3.13068,-0.890573 2.49211,-11.221119 2.49211,-11.221119 m -15.49153,8.526941 c 0,0 1.53768,4.23635 6.12925,2.626824 4.59158,-1.609526 3.66505,-11.295242 3.66505,-11.295242 m -19.02186,4.694503 c 0,0 0.81837,8.260171 6.12925,7.206929 5.3109,-1.053242 3.6766,-15.538574 3.6766,-15.538574 m -19.10076,7.79281 c 0,0 0.20206,6.600738 5.38835,5.321003 5.18629,-1.279734 7.05868,-19.500932 7.05868,-19.500932 m -22.14608,14.449347 c 0,0 -0.13471,6.061902 5.52306,4.984231 5.65779,-1.077672 6.9702,-21.046119 6.9702,-21.046119 m -23.06792,17.678395 c 0,0 0.43681,5.035855 5.79249,4.041268 5.35568,-0.994587 9.61336,-21.305964 9.61336,-21.305964 m -24.63341,18.207659 c 0,0 0.97552,4.123824 5.65779,2.55947 4.68226,-1.564355 10.27534,-21.020203 10.27534,-21.020203 m -24.82391,17.921897 c 0,0 0.26941,4.984231 5.25364,3.90656 4.98424,-1.077672 11.17886,-22.176786 11.17886,-22.176786 M 107.16096,90.70508 c 0,0 0.29837,4.476512 5.25365,3.300369 4.95528,-1.176142 10.32158,-19.895485 10.32158,-19.895485 M 98.337526,90.70508 c 0,0 -0.09815,3.667162 4.782174,3.233014 4.88031,-0.434147 13.20428,-21.229035 13.20428,-21.229035 M 88.571127,90.637726 c 0,0 -0.43617,4.595397 4.849528,4.310685 5.285698,-0.284712 14.827555,-22.959122 14.827555,-22.959122 M 76.514678,89.896826 c 0,0 0.240124,5.096731 7.206928,3.704496 C 90.68841,92.209087 100.81132,70.586401 100.81132,70.586401 M 63.446351,89.871774 c 0,0 -0.07198,4.409646 6.400236,3.662194 6.472227,-0.747452 23.114136,-21.502419 23.114136,-21.502419 M 52.469134,87.270002 c 0,0 -2.035864,4.350519 4.782167,4.51275 6.81803,0.162231 32.688049,-22.141296 32.688049,-22.141296 M 42.972153,83.02667 c 0,0 -3.481111,7.038876 4.310686,5.994548 7.791797,-1.044328 33.328906,-18.887151 33.328906,-18.887151 m -44.644457,7.841018 c 0,0 -2.715981,5.947229 4.108623,5.523067 6.824604,-0.424163 34.406578,-17.544849 34.406578,-17.544849 M 28.625651,72.1826 c 0,0 -2.357285,5.590651 4.647458,6.061903 7.004742,0.471251 36.141452,-16.827062 36.141452,-16.827062 m -46.783459,3.55823 c 0,0 -2.738828,6.915743 6.735447,7.004865 9.474275,0.08912 35.876821,-14.537009 35.876821,-14.537009 M 16.501846,56.152236 c 0,0 -2.89369,7.930482 5.927192,8.756081 8.820883,0.825599 40.733114,-11.573413 40.733114,-11.573413 M 11.787033,47.463509 c 0,0 -1.8604378,8.53212 6.19661,8.756082 8.057049,0.223962 42.159114,-8.154678 42.159114,-8.154678 M 9.4969807,38.572719 c 0,0 -5.151594,7.299002 3.4350773,8.89079 8.586672,1.591788 44.314456,-6.061902 44.314456,-6.061902 M 165.42425,69.87806 c 0,0 0.11858,3.329087 -2.83295,4.238319 -2.95153,0.909231 -5.52538,-2.357622 -5.52538,-2.357622 m 2.01489,-9.890712 c 0,0 -0.79122,10.813479 -4.36683,12.244153 -3.57561,1.430674 -5.06629,-1.944527 -5.06629,-1.944527 m 2.27275,-10.748376 c 0,0 -0.71907,12.731649 -5.09138,13.424229 -4.37231,0.692579 -5.5868,-3.460995 -5.5868,-3.460995 m 2.59796,-11.324303 c 0,0 -1.18378,13.407618 -5.52819,14.420626 -4.34442,1.013008 -5.63583,-3.147334 -5.63583,-3.147334 m 4.78204,-12.864705 c 0,0 -3.56034,14.718057 -8.06736,15.619468 -4.50702,0.901412 -4.56493,-2.422778 -4.56493,-2.422778 m 5.51137,-12.899373 c 0,0 -4.68902,14.92689 -8.86405,15.805189 -4.17503,0.8783 -4.41189,-2.950057 -4.41189,-2.950057 m 5.5373,-14.228137 c 0,0 -3.66039,15.577321 -8.67157,16.186202 -5.01118,0.608882 -5.24325,-2.754763 -5.24325,-2.754763 m 8.38037,-14.835688 c 0,0 -7.19072,15.860279 -11.38687,16.692353 -4.19616,0.832075 -4.9603,-3.098306 -4.9603,-3.098306 m 10.65656,-14.025105 c 0,0 -10.66326,16.080667 -15.424173,16.838618 -4.76092,0.757951 -5.590425,-3.502433 -5.590425,-3.502433 M 108.0059,52.12074 c 0,0 -14.382553,17.318815 -22.159626,18.38777 -7.77708,1.068955 -6.466038,-4.984231 -6.466038,-4.984231 M 104.43483,48.731464 c 0,0 -20.811866,16.541537 -27.964003,17.103729 -7.152136,0.562193 -7.139577,-5.657771 -7.139577,-5.657771 m 32.27597,-13.44504 c 0,0 -19.554054,9.412575 -28.490943,12.595287 -8.936893,3.182711 -8.351957,-5.455713 -8.351957,-5.455713 m 35.29374,-11.921741 c 0,0 -17.600763,7.728713 -29.164483,11.046133 -11.563719,3.31742 -10.507298,-5.523066 -10.507298,-5.523066 m 38.285244,-7.027978 c 0,0 -20.077997,4.134636 -31.437038,6.549726 -11.359037,2.415091 -9.26818,-5.876181 -9.26818,-5.876181 M 97.608186,35.37239 c 0,0 -16.845612,4.190194 -32.215746,5.383571 -15.37013,1.193376 -11.91299,-6.628637 -11.91299,-6.628637 m 44.155501,0.05243 c 0.422462,2.543125 -1.042502,4.692893 3.048119,8.382317 0.7267,3.182417 0.31175,6.342473 7.14402,6.572498 -0.63978,5.72427 2.77294,7.702046 10.76365,6.5725 3.87159,1.869614 5.85667,1.905666 8.47757,1.524057 2.10902,1.578362 4.83821,2.445322 9.71587,0 2.68185,3.223688 6.58963,3.570685 11.04942,1.714566 2.93013,2.687796 5.76977,3.376372 9.71587,1.238296 1.14493,2.505383 3.96265,1.960245 6.85825,1.714565 M 109.4464,34.084501 c 0.0834,4.16104 0.97217,9.091581 7.52503,6.953513 1.14817,3.820503 2.69946,7.076693 9.14434,4.381666 2.46393,3.246132 3.40464,8.885367 12.28772,1.905072 2.81021,2.313041 4.12929,5.754843 10.00163,1.714565 3.02982,1.808928 5.31088,6.628564 11.43044,1.428805 1.86696,1.892858 3.72738,3.860476 9.0029,3.070436 M 130.40218,33.608233 c 2.35906,5.412841 6.8903,10.987161 12.9545,5.524709 2.99188,2.55591 4.62576,7.650921 11.71619,1.428805 2.72089,3.599147 6.28497,6.75727 10.76366,2.571846 4.56959,2.188132 7.65348,1.754201 11.71619,-3.143368 m 3.61964,6.000977 C 173.98248,30.926367 166.12062,33.110296 146.50005,33.227219 126.87948,33.344142 87.684161,35.418052 16.955142,33.131965 m 171.637378,2.286087 c -7.25618,-7.241273 -19.53816,-7.047571 -60.00015,-6.5725 C 88.130378,29.320624 6.2867381,29.417074 6.2867381,29.417074 5.7352479,40.51438 12.845124,40.185041 22.670358,39.990225 c 9.825235,-0.194817 27.546972,-0.78126 30.75808,-5.688478 m 135.164082,50.04876 c -13.23894,0 -23.97122,-8.730039 -23.97122,-19.499089 0,-10.76905 10.73228,-19.49909 23.97122,-19.499091 l 0,0"
       inkscape:connector-curvature="0"
       sodipodi:nodetypes="csccsccsccsccsccsccsccsccsccsccsccsccsccsccsccsccsccsccsccsccsccsccsccsccsccsccsccsccsccsccsccsccsccsccsccscccccccccccccccccccccccsccscsccscc" />
  </g>
</svg>
